<svg width="218" height="42" viewBox="0 0 218 42" fill="none" xmlns="http://www.w3.org/2000/svg">
<path d="M59 32.1199H63.9167L65.4841 15.8605L71.2098 31.4965H74.2387L79.9789 15.8605L81.5304 32.1199H86.463L83.9677 7H78.7291L72.7322 22.7114L66.7339 7H61.4968L59 32.1199ZM94.9363 32.6071C96.002 32.6071 96.9967 32.3896 97.9203 31.9532C98.8633 31.4992 99.7028 30.8562 100.387 30.0639V32.1199H105.061V16.5303H100.387V18.4341C99.7512 17.6705 98.9424 17.0699 98.0276 16.6826C97.0543 16.2522 96.0005 16.0343 94.9363 16.0432C93.4342 16.0432 92.1003 16.4086 90.9331 17.1393C89.7751 17.8604 88.8334 18.8808 88.2072 20.0928C87.5475 21.331 87.2184 22.7317 87.2184 24.2947C87.2184 25.8983 87.5635 27.3294 88.2536 28.5879C88.9054 29.7956 89.8597 30.8134 91.023 31.5414C92.1916 32.2519 93.4951 32.6071 94.9378 32.6071H94.9363ZM96.3225 28.6343C95.1147 28.6343 94.1142 28.2283 93.3226 27.4164C92.5309 26.6044 92.1351 25.5735 92.1351 24.3251C92.1351 23.0767 92.5309 22.0473 93.324 21.2353C94.1244 20.4234 95.1248 20.0174 96.3225 20.0174C97.5303 20.0174 98.5249 20.4234 99.3064 21.2353C100.098 22.0372 100.494 23.0666 100.494 24.3251C100.494 25.5837 100.102 26.6189 99.3209 27.4309C98.5394 28.2327 97.5404 28.6343 96.3225 28.6343V28.6343ZM107.514 32.1199H112.188V22.8941C112.188 21.9908 112.488 21.2339 113.086 20.6249C113.685 20.0073 114.502 19.697 115.537 19.697C116.552 19.697 117.349 20.0116 117.928 20.6409C118.516 21.26 118.811 22.127 118.811 23.2449V32.1199H123.484V22.2546C123.484 21.0164 123.226 19.9348 122.708 19.0126C122.211 18.0996 121.468 17.3449 120.562 16.8348C119.658 16.3071 118.608 16.0432 117.41 16.0432C116.334 16.0432 115.344 16.2505 114.441 16.6666C113.587 17.0376 112.819 17.5822 112.188 18.2659V16.5303H107.514V32.1199ZM133.146 40.4932C135.205 40.4932 136.906 40.1481 138.246 39.458C139.595 38.778 140.6 37.8399 141.261 36.6422C141.93 35.4446 142.265 34.0788 142.265 32.5462V16.5303H137.593V18.4341C136.964 17.6756 136.166 17.0756 135.263 16.6826C134.306 16.2514 133.267 16.0333 132.218 16.0432C130.716 16.0432 129.376 16.4028 128.199 17.1234C127.031 17.8456 126.075 18.8648 125.43 20.0769C124.758 21.3252 124.423 22.7418 124.423 24.3251C124.423 25.9389 124.769 27.37 125.459 28.6184C126.117 29.8225 127.078 30.8347 128.245 31.5559C129.406 32.2575 130.74 32.6216 132.096 32.6071C133.184 32.6071 134.199 32.3838 135.141 31.9372C136.084 31.4989 136.921 30.8601 137.592 30.0654V32.2577C137.592 33.5147 137.177 34.5311 136.345 35.3025C135.523 36.0739 134.451 36.4581 133.132 36.4581C132.19 36.4663 131.261 36.2475 130.422 35.8201C129.59 35.3938 128.96 34.8197 128.534 34.0991L124.728 35.9564C125.35 37.4077 126.452 38.6009 127.85 39.3362C129.281 40.1075 131.047 40.4932 133.148 40.4932H133.146ZM133.496 28.6329C132.278 28.6329 131.277 28.2327 130.497 27.4309C129.726 26.6189 129.34 25.5938 129.34 24.3556C129.34 23.097 129.736 22.0618 130.528 21.2498C131.329 20.4277 132.328 20.0174 133.526 20.0174C134.724 20.0174 135.718 20.4277 136.51 21.2498C137.302 22.0618 137.699 23.097 137.699 24.3556C137.699 25.5938 137.302 26.6189 136.51 27.4309C135.728 28.2327 134.724 28.6343 133.496 28.6343V28.6329ZM151.219 32.6071C152.285 32.6071 153.278 32.3896 154.203 31.9532C155.146 31.4991 155.985 30.856 156.668 30.0639V32.1199H161.343V16.5303H156.67V18.4341C156.034 17.6703 155.225 17.0697 154.309 16.6826C153.336 16.2524 152.283 16.0345 151.219 16.0432C149.717 16.0432 148.382 16.4086 147.215 17.1393C146.057 17.8604 145.115 18.8808 144.489 20.0928C143.831 21.331 143.5 22.7317 143.5 24.2947C143.5 25.8983 143.845 27.3294 144.535 28.5879C145.187 29.7958 146.142 30.8136 147.306 31.5414C148.473 32.2519 149.778 32.6071 151.219 32.6071V32.6071ZM152.604 28.6343C151.396 28.6343 150.397 28.2283 149.606 27.4164C148.814 26.6044 148.417 25.5735 148.417 24.3251C148.417 23.0767 148.814 22.0473 149.606 21.2353C150.408 20.4234 151.406 20.0174 152.604 20.0174C153.812 20.0174 154.808 20.4234 155.588 21.2353C156.38 22.0372 156.777 23.0666 156.777 24.3251C156.777 25.5837 156.386 26.6189 155.603 27.4309C154.823 28.2327 153.822 28.6343 152.604 28.6343V28.6343ZM164.465 32.1199H171.362C173.148 32.1199 174.808 31.8053 176.341 31.176C177.847 30.5608 179.217 29.6559 180.375 28.5125C181.531 27.3765 182.448 26.0196 183.07 24.5223C183.708 22.9999 184.028 21.3557 184.028 19.5897C184.028 17.8237 183.704 16.1809 183.054 14.657C182.432 13.1518 181.517 11.7858 180.36 10.6393C179.21 9.49019 177.844 8.57961 176.341 7.95985C174.808 7.32043 173.148 7 171.362 7H164.466V32.1199H164.465ZM169.399 27.7049V11.415H170.814C172.336 11.415 173.692 11.7702 174.879 12.4807C176.063 13.1774 177.036 14.1821 177.695 15.3878C178.385 16.6159 178.73 18.0122 178.73 19.5752C178.73 21.128 178.385 22.5185 177.695 23.7466C177.036 24.9523 176.063 25.957 174.879 26.6537C173.69 27.354 172.336 27.7049 170.814 27.7049H169.399V27.7049ZM192.771 32.6071C194.417 32.6071 195.909 32.2519 197.249 31.5414C198.588 30.8309 199.624 29.8464 200.354 28.5879L196.991 26.8973C196.411 27.5889 195.807 28.0906 195.178 28.4052C194.559 28.7198 193.844 28.8779 193.032 28.8779C191.732 28.8779 190.686 28.5169 189.895 27.7962C189.103 27.0756 188.707 26.1216 188.707 24.9341H200.659C200.688 24.6702 200.704 24.4919 200.704 24.402C200.714 24.3005 200.718 24.183 200.718 24.0511C200.718 22.4576 200.375 21.0628 199.685 19.8652C199.016 18.6786 198.023 17.707 196.822 17.0639C195.604 16.3825 194.184 16.0432 192.56 16.0432C190.936 16.0432 189.468 16.4129 188.159 17.1538C186.886 17.8601 185.816 18.8828 185.053 20.1233C184.282 21.3716 183.896 22.7723 183.896 24.3251C183.896 25.8983 184.282 27.3091 185.053 28.5575C185.837 29.8075 186.934 30.8307 188.236 31.5254C189.576 32.2461 191.088 32.6071 192.773 32.6071H192.771ZM188.875 22.346C188.977 21.4427 189.352 20.7322 190.002 20.2146C190.652 19.697 191.484 19.4389 192.499 19.4389C193.463 19.4389 194.265 19.697 194.904 20.2146C195.554 20.7322 195.96 21.4427 196.122 22.346H188.875ZM199 32.1199H204.603L208.5 27.1873L212.398 32.1199H218L211.346 23.9757L217.056 16.5303H211.636L208.5 20.7177L205.364 16.5303H199.943L205.652 23.9757L199 32.1199Z" fill="#FF6740"/>
<path d="M42.3139 26.5445H10.0645C9.87446 26.5445 9.69219 26.469 9.55779 26.3346C9.4234 26.2002 9.3479 26.018 9.3479 25.8279C9.3479 25.6378 9.4234 25.4556 9.55779 25.3212C9.69219 25.1868 9.87446 25.1113 10.0645 25.1113H42.3139C42.5039 25.1113 42.6862 25.1868 42.8206 25.3212C42.955 25.4556 43.0305 25.6378 43.0305 25.8279C43.0305 26.018 42.955 26.2002 42.8206 26.3346C42.6862 26.469 42.5039 26.5445 42.3139 26.5445V26.5445ZM42.3139 29.2616H10.0645C9.87446 29.2616 9.69219 29.1861 9.55779 29.0517C9.4234 28.9173 9.3479 28.735 9.3479 28.5449C9.3479 28.3549 9.4234 28.1726 9.55779 28.0382C9.69219 27.9038 9.87446 27.8283 10.0645 27.8283H42.3139C42.5039 27.8283 42.6862 27.9038 42.8206 28.0382C42.955 28.1726 43.0305 28.3549 43.0305 28.5449C43.0305 28.735 42.955 28.9173 42.8206 29.0517C42.6862 29.1861 42.5039 29.2616 42.3139 29.2616Z" fill="#FF6740"/>
<path d="M37.0354 28.4555V33.2477L39.0873 32.0595L41.1404 33.2477V28.4568H37.0366L37.0354 28.4555Z" fill="#FF6740"/>
<path d="M43.7509 13.3109H38.3572V16.3011H43.7509V13.3121V13.3109Z" fill="#272B30"/>
<path d="M46.648 17.0618C46.6222 17.0373 46.5953 17.0165 46.5683 16.9932C45.9502 16.4567 45.426 15.8208 45.0175 15.1116L45.0065 15.0895H45.0052C44.544 14.2768 44.2445 13.3824 44.1232 12.4558C44.1183 12.3982 44.111 12.3419 44.1049 12.2843V12.2733C44.0529 11.9468 43.9146 11.6402 43.7043 11.3851L43.6455 11.319C41.9273 9.38601 39.6629 8.01997 37.1518 7.40144C37.0817 5.91444 37.4251 4.43712 38.144 3.13354C38.1826 3.06318 38.2022 2.98394 38.2008 2.90368C38.1994 2.82342 38.177 2.74493 38.1359 2.67598C38.0948 2.60702 38.0364 2.55001 37.9665 2.51058C37.8966 2.47116 37.8176 2.45069 37.7373 2.45121H37.7055C34.5293 2.96529 31.5677 4.38122 29.1733 6.53046C27.7757 7.78033 26.5958 9.25414 25.6821 10.8915C25.0032 10.5274 24.2981 10.2145 23.5726 9.95556C21.4018 9.17803 19.0868 8.88656 16.791 9.10173C15.0259 9.26055 13.3006 9.71828 11.6889 10.4554C6.58923 12.7853 2.94608 17.7502 2.49773 23.6057C2.46588 24.01 2.44995 24.4204 2.44995 24.8307V28.7912C2.44995 29.4772 2.55163 30.1362 2.74028 30.7573C3.25081 32.4355 4.39023 33.8514 5.92038 34.7091C6.85138 35.2322 7.91713 35.5421 9.05638 35.5715H19.1161C19.2152 35.5641 19.3147 35.5641 19.4138 35.5715C19.4297 35.5715 19.4456 35.5715 19.4628 35.5752C19.4885 35.5764 19.5142 35.5776 19.5412 35.5813C20.0735 35.6425 20.5695 35.8818 20.9488 36.2602C21.3281 36.6386 21.5685 37.1341 21.631 37.6663C21.6451 37.7595 21.6508 37.8538 21.6482 37.948L21.6469 37.9921V37.997C21.656 38.3933 21.7636 38.781 21.9599 39.1253C22.1562 39.4696 22.4351 39.7596 22.7715 39.9693C23.1194 40.1843 23.517 40.3058 23.9257 40.3222C24.3344 40.3386 24.7404 40.2492 25.1044 40.0627C25.4684 39.8762 25.7781 39.5989 26.0036 39.2576C26.229 38.9163 26.3626 38.5226 26.3914 38.1146C26.3943 38.0833 26.3959 38.0518 26.3963 38.0203V37.888C26.3963 37.0771 26.2615 36.2955 26.0128 35.5715C25.6541 34.5288 25.0582 33.5837 24.2721 32.8104C22.9383 31.4941 21.1395 30.7565 19.2655 30.7573H10.878C10.8584 30.7597 10.8375 30.7597 10.8167 30.7597C10.7971 30.7597 10.7763 30.7597 10.7555 30.7573C9.81755 30.7422 8.9232 30.3589 8.26544 29.6901C7.60768 29.0213 7.23926 28.1208 7.2397 27.1827C7.23954 26.7129 7.33194 26.2476 7.51163 25.8135C7.69132 25.3794 7.95478 24.9849 8.28695 24.6526C8.61912 24.3203 9.0135 24.0567 9.44756 23.8769C9.88162 23.6971 10.3469 23.6045 10.8167 23.6045H42.7966C43.1892 23.6039 43.5715 23.4791 43.889 23.2481C44.2065 23.0171 44.4428 22.6916 44.5642 22.3183L44.5887 22.2325C44.7002 21.8724 44.9195 21.5588 45.2086 21.3297L45.2135 21.3272C45.2361 21.3079 45.2598 21.2899 45.2845 21.2733C45.3168 21.2491 45.3503 21.2266 45.385 21.206C46.0104 20.74 46.4704 20.0862 46.6978 19.3402C46.9253 18.5942 46.9082 17.795 46.6492 17.0593L46.648 17.0618ZM42.3764 15.6347C42.3016 15.6343 42.228 15.6158 42.162 15.5808C41.6353 15.2758 41.0154 15.1739 40.4188 15.2941C40.1591 15.3431 39.9141 15.4338 39.69 15.5575L39.6801 15.5648C39.6654 15.5697 39.6532 15.5783 39.641 15.5869C39.5391 15.633 39.4237 15.6397 39.3172 15.6057C39.2107 15.5717 39.1205 15.4995 39.0642 15.4029C39.0078 15.3063 38.9892 15.1923 39.0121 15.0828C39.0349 14.9734 39.0975 14.8762 39.1877 14.8102L39.2318 14.7833C39.7434 14.4961 40.3203 14.3453 40.907 14.3453C41.4937 14.3453 42.0706 14.4961 42.5822 14.7833L42.6263 14.8102C42.707 14.8636 42.7682 14.9417 42.801 15.0327C42.8338 15.1237 42.8364 15.2229 42.8083 15.3155C42.7803 15.4081 42.7231 15.4892 42.6452 15.5467C42.5674 15.6042 42.4731 15.635 42.3764 15.6347Z" fill="#F1F1F1"/>
<path d="M46.648 17.0618C46.6222 17.0373 46.5953 17.0165 46.5683 16.9932C45.9502 16.4567 45.426 15.8208 45.0175 15.1116L45.0065 15.0895H45.0052C44.544 14.2768 44.2445 13.3824 44.1232 12.4558C44.1183 12.3982 44.111 12.3419 44.1049 12.2843V12.2733C44.0529 11.9468 43.9146 11.6402 43.7043 11.3851L43.6455 11.319C41.9273 9.38601 39.6629 8.01997 37.1518 7.40144C37.0817 5.91444 37.4251 4.43712 38.144 3.13354C38.1826 3.06318 38.2022 2.98394 38.2008 2.90368C38.1994 2.82342 38.177 2.74493 38.1359 2.67598C38.0948 2.60702 38.0364 2.55001 37.9665 2.51058C37.8966 2.47116 37.8176 2.45069 37.7373 2.45121H37.7055C34.5293 2.96529 31.5677 4.38122 29.1733 6.53046C27.7757 7.78033 26.5958 9.25414 25.6821 10.8915C25.0032 10.5274 24.2981 10.2145 23.5726 9.95556C21.4018 9.17803 19.0868 8.88656 16.791 9.10173C15.0259 9.26055 13.3006 9.71828 11.6889 10.4554C6.58923 12.7853 2.94608 17.7502 2.49773 23.6057C2.46588 24.01 2.44995 24.4204 2.44995 24.8307V28.7912C2.44995 29.4772 2.55163 30.1362 2.74028 30.7573C3.25081 32.4355 4.39023 33.8514 5.92038 34.7091C6.85138 35.2322 7.91713 35.5421 9.05638 35.5715H19.1161C19.2152 35.5641 19.3147 35.5641 19.4138 35.5715C19.4297 35.5715 19.4456 35.5715 19.4628 35.5752C19.4885 35.5764 19.5142 35.5776 19.5412 35.5813C20.0735 35.6425 20.5695 35.8818 20.9488 36.2602C21.3281 36.6386 21.5685 37.1341 21.631 37.6663C21.6451 37.7595 21.6508 37.8538 21.6482 37.948L21.6469 37.9921V37.997C21.656 38.3933 21.7636 38.781 21.9599 39.1253C22.1562 39.4696 22.4351 39.7596 22.7715 39.9693C23.1194 40.1843 23.517 40.3058 23.9257 40.3222C24.3344 40.3386 24.7404 40.2492 25.1044 40.0627C25.4684 39.8762 25.7781 39.5989 26.0036 39.2576C26.229 38.9163 26.3626 38.5226 26.3914 38.1146C26.3943 38.0833 26.3959 38.0518 26.3963 38.0203V37.888C26.3963 37.0771 26.2615 36.2955 26.0128 35.5715C25.6541 34.5288 25.0582 33.5837 24.2721 32.8104C22.9383 31.4941 21.1395 30.7565 19.2655 30.7573H10.878C10.8584 30.7597 10.8375 30.7597 10.8167 30.7597C10.7971 30.7597 10.7763 30.7597 10.7555 30.7573C9.81755 30.7422 8.9232 30.3589 8.26544 29.6901C7.60768 29.0213 7.23926 28.1208 7.2397 27.1827C7.23954 26.7129 7.33194 26.2476 7.51163 25.8135C7.69132 25.3794 7.95478 24.9849 8.28695 24.6526C8.61912 24.3203 9.0135 24.0567 9.44756 23.8769C9.88162 23.6971 10.3469 23.6045 10.8167 23.6045H42.7966C43.1892 23.6039 43.5715 23.4791 43.889 23.2481C44.2065 23.0171 44.4428 22.6916 44.5642 22.3183L44.5887 22.2325C44.7002 21.8724 44.9195 21.5588 45.2086 21.3297L45.2135 21.3272C45.2361 21.3079 45.2598 21.2899 45.2845 21.2733C45.3168 21.2491 45.3503 21.2266 45.385 21.206C46.0104 20.74 46.4704 20.0862 46.6978 19.3402C46.9253 18.5942 46.9082 17.795 46.6492 17.0593L46.648 17.0618ZM42.3764 15.6347C42.3016 15.6343 42.228 15.6158 42.162 15.5808C41.6353 15.2758 41.0154 15.1739 40.4188 15.2941C40.1591 15.3431 39.9141 15.4338 39.69 15.5575L39.6801 15.5648C39.6654 15.5697 39.6532 15.5783 39.641 15.5869C39.5391 15.633 39.4237 15.6397 39.3172 15.6057C39.2107 15.5717 39.1205 15.4995 39.0642 15.4029C39.0078 15.3063 38.9892 15.1923 39.0121 15.0828C39.0349 14.9734 39.0975 14.8762 39.1877 14.8102L39.2318 14.7833C39.7434 14.4961 40.3203 14.3453 40.907 14.3453C41.4937 14.3453 42.0706 14.4961 42.5822 14.7833L42.6263 14.8102C42.707 14.8636 42.7682 14.9417 42.801 15.0327C42.8338 15.1237 42.8364 15.2229 42.8083 15.3155C42.7803 15.4081 42.7231 15.4892 42.6452 15.5467C42.5674 15.6042 42.4731 15.635 42.3764 15.6347Z" fill="#E6E6E6"/>
<path d="M25.7312 10.8094C26.5924 14.9499 30.1841 18.0553 34.4863 18.0553C37.0184 18.0553 39.3042 16.9773 40.9322 15.2476L40.9065 15.2463C40.7387 15.2463 40.5758 15.2623 40.419 15.2953C40.1633 15.3423 39.9171 15.4309 39.6901 15.5575L39.6803 15.5648C39.6656 15.5702 39.6519 15.5781 39.6399 15.5881C39.571 15.622 39.4947 15.6378 39.4181 15.6341C39.3415 15.6303 39.2671 15.6071 39.2019 15.5667C39.1367 15.5263 39.0829 15.4699 39.0455 15.4029C39.0081 15.336 38.9884 15.2606 38.9882 15.1839C38.9882 15.0271 39.0666 14.8911 39.1866 14.8102L39.2319 14.7833C39.9584 14.3757 40.8088 14.2477 41.6231 14.4231C42.4046 13.3676 42.9513 12.1572 43.2267 10.8731C41.5645 9.1722 39.46 7.96974 37.1507 7.40144C37.0803 5.91403 37.4238 4.43623 38.1429 3.13232C38.1815 3.06196 38.2011 2.98272 38.1997 2.90246C38.1983 2.8222 38.1759 2.74371 38.1348 2.67475C38.0937 2.6058 38.0353 2.54879 37.9654 2.50936C37.8955 2.46994 37.8165 2.44947 37.7362 2.44999C37.7264 2.44999 37.7154 2.44999 37.7044 2.45244C34.5281 2.96618 31.5664 4.38216 29.1722 6.53169C27.7993 7.76037 26.6365 9.20535 25.73 10.8094H25.7312Z" fill="#FF6740"/>
<path d="M44.2775 19.3636C43.8916 19.2433 43.5013 19.1371 43.1077 19.0451C41.9393 18.754 40.7478 18.5658 39.5466 18.4828C38.7479 18.4167 37.9467 18.4497 37.1505 18.511L36.5527 18.5771C36.3542 18.6053 36.1607 18.6531 35.9622 18.6874C35.5604 18.7364 35.1831 18.8834 34.7838 18.9667C35.5258 18.6258 36.3116 18.39 37.1186 18.266C37.9281 18.1409 38.7491 18.1068 39.5662 18.1643C40.3813 18.2196 41.1897 18.3479 41.9819 18.5477C42.7731 18.7402 43.5424 19.0136 44.2775 19.3636V19.3636ZM43.926 20.0986C43.5265 20.0365 43.1248 19.9895 42.7218 19.9577C41.5228 19.8432 40.316 19.8342 39.1154 19.9308C38.3155 19.9834 37.529 20.1353 36.7511 20.3142L36.1693 20.4685C35.9782 20.5261 35.792 20.6008 35.6021 20.6645C35.2113 20.7736 34.861 20.9732 34.4788 21.1166C35.1619 20.6691 35.904 20.3191 36.6838 20.0765C37.4655 19.8322 38.272 19.6761 39.0884 19.611C39.9031 19.5498 40.7238 19.5498 41.5348 19.6331C42.3456 19.7062 43.1469 19.8622 43.926 20.0986V20.0986ZM43.8708 20.9549C43.4666 20.9867 43.0636 21.0173 42.6642 21.0774C41.4693 21.2247 40.2896 21.4764 39.1387 21.8295C38.3694 22.0537 37.6344 22.371 36.9116 22.7152L36.3787 22.9908C36.2036 23.0888 36.0382 23.2015 35.8667 23.3056C35.5078 23.4955 35.2089 23.7662 34.8659 23.988C35.4366 23.4038 36.086 22.902 36.7952 22.4971C37.5058 22.0899 38.2598 21.7636 39.0431 21.5245C39.8237 21.2837 40.6244 21.1135 41.4355 21.0161C42.243 20.9122 43.0591 20.8916 43.8708 20.9549V20.9549Z" fill="#272B30"/>
<path d="M46.5683 16.9932C46.4332 16.8755 46.3024 16.7529 46.1763 16.6257C45.9549 16.7597 45.7835 16.9625 45.6882 17.2031C45.5928 17.4436 45.5788 17.7088 45.6482 17.958C45.7176 18.2073 45.8666 18.4271 46.0725 18.5837C46.2785 18.7404 46.53 18.8254 46.7888 18.8258H46.8071C46.8145 18.7756 46.8268 18.7278 46.8317 18.6764C46.894 18.1308 46.8311 17.5782 46.6479 17.0606L46.5683 16.9932V16.9932Z" fill="#F27BAA"/>
<path d="M36.7414 8.0115C36.7414 8.06785 36.7414 8.1242 36.7438 8.18055C35.312 8.76228 33.9978 9.59951 32.8655 10.6514C32.6182 8.94129 33.0306 7.20116 34.019 5.78393C35.0075 4.36669 36.4979 3.37845 38.1881 3.01962C37.2412 4.51219 36.7398 6.24391 36.7426 8.0115H36.7414Z" fill="white"/>
<path d="M24.2723 32.8116C24.1142 32.657 23.9491 32.5099 23.7774 32.3706C22.9004 32.5512 22.0804 32.9421 21.388 33.5097C20.6955 34.0773 20.1514 34.8046 19.8022 35.6291C20.327 35.7497 20.7952 36.0447 21.1306 36.4659C21.4659 36.8871 21.6484 37.4096 21.6483 37.948L21.6471 37.9934V37.9983C21.6566 38.3946 21.7643 38.7824 21.9605 39.1268C22.1568 39.4712 22.4355 39.7616 22.7716 39.9717C23.1265 40.191 23.5328 40.3131 23.9498 40.3256C24.3667 40.3381 24.7796 40.2406 25.147 40.043C25.5143 39.8453 25.8232 39.5545 26.0425 39.1996C26.2618 38.8448 26.3839 38.4385 26.3964 38.0215V37.8892C26.3964 37.0783 26.2617 36.2967 26.013 35.5728C25.6538 34.5299 25.058 33.5844 24.2723 32.8104V32.8116Z" fill="#FF6740"/>
</svg>
